<svg width="269" viewBox="0 0 363 27" fill="none" xmlns="http://www.w3.org/2000/svg" role="img" aria-label="Atlassian Design System"><path d="M6.33001 9.82153C6.26473 9.74109 6.18004 9.67859 6.08392 9.63993C5.9878 9.60128 5.88342 9.58774 5.78062 9.60059C5.67782 9.61344 5.57998 9.65226 5.49634 9.71338C5.41269 9.77451 5.34599 9.85593 5.30252 9.94997L0.0687035 20.3534C0.0191937 20.4516 -0.00424609 20.5609 0.000631572 20.6708C0.00550923 20.7808 0.0385407 20.8876 0.096559 20.981C0.154577 21.0745 0.235636 21.1515 0.331964 21.2047C0.428292 21.2578 0.536657 21.2853 0.646671 21.2845H7.90337C8.01929 21.2872 8.13333 21.255 8.23067 21.192C8.32802 21.129 8.40417 21.0382 8.44923 20.9313C10.0226 17.6883 9.0593 12.7756 6.33001 9.82153Z" fill="url(#paint0_linear)"></path><path d="M10.151 0.349292C8.84985 2.34883 8.0916 4.65263 7.95085 7.03409C7.8101 9.41556 8.29171 11.7926 9.34829 13.9315L12.8482 20.9313C12.8995 21.0335 12.9772 21.12 13.0731 21.1821C13.1691 21.2442 13.2799 21.2796 13.3941 21.2845H20.6508C20.7608 21.2853 20.8691 21.2578 20.9655 21.2047C21.0618 21.1515 21.1428 21.0745 21.2009 20.981C21.2589 20.8876 21.2919 20.7808 21.2968 20.6708C21.3017 20.5609 21.2782 20.4516 21.2287 20.3534C21.2287 20.3534 11.4354 0.830931 11.2106 0.349292C10.9859 -0.132347 10.44 -0.100238 10.151 0.349292Z" fill="#2684FF"></path><path d="M95.2727 8.6977C95.2727 11.2986 96.4608 13.3535 101.149 14.2526C103.942 14.8306 104.52 15.2801 104.52 16.2113C104.52 17.1424 103.942 17.7204 101.951 17.7204C99.5747 17.6639 97.2481 17.0244 95.1764 15.8581V20.0644C96.5892 20.7708 98.4515 21.5414 101.919 21.5414C106.8 21.5414 108.759 19.358 108.759 16.1149L95.2727 8.6977ZM108.759 16.1149C108.759 13.0646 107.121 11.6196 102.562 10.6243C100.025 10.0784 99.4148 9.50044 99.4148 8.6977C99.4148 7.89497 100.314 7.2849 101.984 7.2849C103.653 7.2849 105.997 7.89497 107.892 8.72981V4.71615C106.575 4.04186 104.52 3.52811 102.112 3.52811C97.6167 3.52811 95.2727 5.48678 95.2727 8.6977" fill="var(--ds-text-brand, #0052CC)"></path><path d="M158.143 3.78499V21.2845H161.867V7.92708L163.441 11.4912L168.707 21.2845H173.395V3.78499H169.67V15.0553L168.257 11.8123L164.019 3.78499H158.143Z" fill="var(--ds-text-brand, #0052CC)"></path><path d="M134.478 3.78499H130.4V21.2653H134.478V3.78499Z" fill="var(--ds-text-brand, #0052CC)"></path><path d="M125.712 16.1149C125.712 13.0646 124.075 11.6196 119.483 10.6243C116.979 10.0784 116.369 9.50044 116.369 8.6977C116.369 7.89497 117.268 7.2849 118.937 7.2849C120.607 7.2849 122.951 7.89497 124.845 8.72981V4.71615C123.529 4.04186 121.474 3.52811 119.066 3.52811C114.538 3.52811 112.194 5.48678 112.194 8.6977C112.194 11.2986 113.414 13.3535 118.102 14.2526C120.896 14.8306 121.474 15.2801 121.474 16.2113C121.474 17.1424 120.896 17.7204 118.905 17.7204C116.528 17.6679 114.2 17.0281 112.13 15.8581V20.0644C113.543 20.7708 115.405 21.5414 118.873 21.5414C123.754 21.5414 125.712 19.358 125.712 16.1149Z" fill="var(--ds-text-brand, #0052CC)"></path><path d="M63.6451 3.78499V21.2845H71.9935L73.31 17.4956H67.723V3.78499H63.6451Z" fill="var(--ds-text-brand, #0052CC)"></path><path d="M47.1088 3.78499V7.57388H51.6362V21.2845H55.7462V7.57388H60.5626V3.78499H47.1088Z" fill="var(--ds-text-brand, #0052CC)"></path><path d="M41.1686 3.78499H35.8063L29.7056 21.2845H34.3614L35.2284 18.3305C37.3598 18.9298 39.6152 18.9298 41.7466 18.3305L42.6135 21.2845H47.2694L41.1686 3.78499ZM38.4714 15.1838C37.7219 15.1763 36.9767 15.0683 36.2559 14.8627L38.4714 7.22068L40.7191 14.8627C39.9877 15.0704 39.2317 15.1784 38.4714 15.1838Z" fill="var(--ds-text-brand, #0052CC)"></path><path d="M86.4427 3.78499H81.0483L74.9797 21.2845H79.6355L80.5025 18.3305C81.5578 18.6281 82.649 18.7793 83.7455 18.78C84.8524 18.7771 85.9539 18.6259 87.0206 18.3305L87.8555 21.2845H92.5113L86.4427 3.78499ZM83.7455 15.1838C82.9854 15.1761 82.2297 15.0682 81.4978 14.8627L83.7455 7.22068L85.9931 14.8627C85.2613 15.0682 84.5056 15.1761 83.7455 15.1838V15.1838Z" fill="var(--ds-text-brand, #0052CC)"></path><path d="M149.12 3.78499H143.758L137.657 21.2845H142.313L143.18 18.3305C144.246 18.6278 145.348 18.7791 146.455 18.78C147.551 18.7793 148.643 18.6281 149.698 18.3305L150.565 21.2845H155.221L149.12 3.78499ZM146.455 15.1838C145.695 15.1761 144.939 15.0682 144.207 14.8627L146.455 7.22068L148.703 14.8627C147.97 15.066 147.215 15.1739 146.455 15.1838V15.1838Z" fill="var(--ds-text-brand, #0052CC)"></path><defs><linearGradient id="paint0_linear" x1="9.17811" y1="11.4431" x2="3.67779" y2="20.9699" gradientUnits="userSpaceOnUse"><stop stop-color="#0052CC" stop-opacity="1"></stop><stop offset="0.92" stop-color="#2684FF"></stop></linearGradient></defs></svg>